<?xml version="1.0" encoding="UTF-8"?>
<svg xmlns="http://www.w3.org/2000/svg" xmlns:xlink="http://www.w3.org/1999/xlink" width="79pt" height="60pt" viewBox="0 0 79 60" version="1.1">
<g id="surface1">
<path style=" stroke:none;fill-rule:evenodd;fill:rgb(87.843137%,91.764706%,96.078431%);fill-opacity:1;" d="M 46.296875 0.0117188 C 55.164062 0.0078125 64.035156 -0.0195312 72.902344 0.0195312 C 78.171875 0.0429688 79.660156 1.8125 78.523438 7.039062 C 75.195312 22.355469 71.792969 37.65625 68.34375 52.945312 C 67.253906 57.777344 64.746094 59.757812 59.6875 59.773438 C 41.949219 59.828125 24.214844 59.832031 6.480469 59.769531 C 0.683594 59.75 -0.84375 57.777344 0.40625 52.257812 C 3.796875 37.273438 7.203125 22.289062 10.636719 7.3125 C 11.945312 1.605469 13.910156 0.0390625 19.695312 0.0234375 C 28.5625 -0.00390625 37.429688 0.015625 46.296875 0.0117188 Z M 46.296875 0.0117188 "/>
<path style=" stroke:none;fill-rule:evenodd;fill:rgb(14.901961%,44.313725%,74.509804%);fill-opacity:1;" d="M 32.898438 57.992188 C 24.027344 57.988281 15.160156 58.03125 6.289062 57.972656 C 1.792969 57.941406 0.976562 56.875 1.988281 52.457031 C 5.417969 37.472656 8.960938 22.515625 12.316406 7.511719 C 13.21875 3.488281 15.160156 1.710938 19.449219 1.75 C 37.1875 1.914062 54.925781 1.804688 72.664062 1.820312 C 77.109375 1.824219 77.859375 2.78125 76.859375 7.3125 C 73.617188 22.027344 70.355469 36.734375 67.035156 51.429688 C 65.792969 56.929688 64.363281 57.976562 58.601562 57.992188 C 50.035156 58.007812 41.464844 57.996094 32.898438 57.992188 Z M 32.898438 57.992188 "/>
<path style=" stroke:none;fill-rule:evenodd;fill:rgb(99.215686%,99.215686%,99.607843%);fill-opacity:1;" d="M 40.445312 28.625 C 39.847656 27.925781 39.195312 27.117188 38.503906 26.347656 C 34.585938 21.972656 30.699219 17.566406 26.707031 13.257812 C 24.882812 11.285156 24.300781 9.371094 26.492188 7.425781 C 28.660156 5.5 30.789062 5.671875 32.777344 7.886719 C 38.3125 14.046875 43.84375 20.214844 49.46875 26.292969 C 51.570312 28.5625 51.082031 30.105469 48.765625 31.789062 C 39.886719 38.246094 31.054688 44.773438 22.230469 51.316406 C 20.246094 52.785156 18.355469 53.152344 16.753906 50.980469 C 14.988281 48.585938 16.621094 47.160156 18.457031 45.820312 C 25.011719 41.023438 31.554688 36.207031 38.070312 31.355469 C 38.976562 30.679688 40.28125 30.285156 40.445312 28.625 Z M 40.445312 28.625 "/>
<path style=" stroke:none;fill-rule:evenodd;fill:rgb(98.823529%,99.215686%,99.215686%);fill-opacity:1;" d="M 43.25 51.800781 C 40.863281 51.800781 38.472656 51.882812 36.089844 51.773438 C 34.191406 51.6875 33.046875 50.621094 33.070312 48.609375 C 33.09375 46.710938 34.046875 45.28125 35.945312 45.226562 C 41.164062 45.085938 46.390625 45.117188 51.609375 45.21875 C 53.269531 45.253906 54.496094 46.339844 54.484375 48.074219 C 54.472656 50.066406 53.429688 51.609375 51.304688 51.738281 C 48.628906 51.902344 45.9375 51.777344 43.25 51.777344 C 43.25 51.785156 43.25 51.792969 43.25 51.800781 Z M 43.25 51.800781 "/>
</g>
</svg>